<svg width="49" height="49" viewBox="0 0 49 49" fill="none" xmlns="http://www.w3.org/2000/svg">
<path d="M24.5 0.5C11.2445 0.5 0.5 11.2445 0.5 24.5C0.5 37.754 11.2445 48.5 24.5 48.5C37.754 48.5 48.5 37.7555 48.5 24.5C48.5 11.2445 37.754 0.5 24.5 0.5ZM24.5 44.5625C13.4198 44.5625 4.4375 35.5802 4.4375 24.5C4.4375 13.4198 13.4198 4.4375 24.5 4.4375C35.5802 4.4375 44.5625 13.4198 44.5625 24.5C44.5625 35.5802 35.5802 44.5625 24.5 44.5625Z" fill="#FEF9FF" stroke="#FEF9FF"/>
<path d="M34.7376 31.8892L34.7368 31.8883L27.3544 24.5045L34.6909 17.2282C35.4685 16.4585 35.4691 15.2091 34.6904 14.4402C33.9169 13.675 32.6634 13.6752 31.89 14.4407L31.8897 14.441L24.5602 21.7102L17.1156 14.2642C17.1154 14.264 17.1153 14.2639 17.1151 14.2637C16.341 13.4862 15.0836 13.4863 14.3095 14.264C13.5364 15.0393 13.5365 16.298 14.3098 17.0732L14.3102 17.0736L21.7411 24.5059L14.2676 31.9177L14.2675 31.9178C13.4921 32.6872 13.4913 33.9356 14.2675 34.7044C15.0414 35.4724 16.2955 35.4718 17.0703 34.7049L17.0706 34.7045L24.5367 27.3002L31.9328 34.6963C31.933 34.6964 31.9331 34.6966 31.9332 34.6967C32.7073 35.4743 33.9647 35.4742 34.7388 34.6966C35.5111 33.9222 35.5098 32.6653 34.7376 31.8892Z" fill="#FEF9FF" stroke="#FEF9FF"/>
</svg>
