<svg width="35" height="27" viewBox="0 0 35 27" fill="none" xmlns="http://www.w3.org/2000/svg">
<path d="M34.7101 2.90812C34.3963 2.05447 33.8374 1.31916 33.1078 0.799771C32.3782 0.280378 31.5123 0.00145158 30.625 0L4.37505 0C3.47265 0.00247166 2.59306 0.291905 1.85683 0.82864C1.12059 1.36537 0.563736 2.12315 0.26256 2.99812C0.0863154 3.47796 -0.00266324 3.98705 6.06986e-05 4.49999V22.4999C0.000735589 23.3957 0.261319 24.2709 0.748448 25.0135C1.23558 25.756 1.92708 26.3321 2.73443 26.6681C3.25487 26.8882 3.81232 27.001 4.37505 26.9999H30.625C31.1598 27.0031 31.6897 26.896 32.1836 26.6849C33.1483 26.3206 33.9537 25.6119 34.4531 24.6881C34.8133 24.0184 35.0016 23.2653 35 22.4999V4.49999C34.9995 3.95554 34.9012 3.41586 34.7101 2.90812ZM2.9149 4.49999C2.91634 4.10212 3.07064 3.72098 3.34416 3.43964C3.61768 3.15831 3.98824 2.9996 4.37505 2.99812H30.625C31.0118 2.9996 31.3824 3.15831 31.6559 3.43964C31.9294 3.72098 32.0837 4.10212 32.0851 4.49999V4.78686L20.4586 13.7868L18.0469 15.705L17.5 16.1268L16.9531 15.6881L14.5141 13.815L2.9149 4.84311V4.49999ZM2.9149 22.4999V8.59498L12.0914 15.6881L2.94771 22.7531C2.92747 22.6702 2.91646 22.5853 2.9149 22.4999ZM6.19614 24.0018L14.525 17.5668L16.625 19.1981C16.8765 19.3952 17.1839 19.5019 17.5 19.5019C17.8162 19.5019 18.1236 19.3952 18.375 19.1981L20.4586 17.5781L28.7273 24.0018H6.19614ZM32.0851 22.4999C32.0851 22.6065 32.0704 22.7126 32.0414 22.8149L22.8813 15.6881L32.0851 8.5331V22.4999Z" fill="#56423D"/>
</svg>
