<svg width="31" height="31" viewBox="0 0 31 31" fill="none" xmlns="http://www.w3.org/2000/svg">
<path d="M17.2945 18.7715C16.8399 19.2247 16.3853 19.9047 16.0444 20.4713C13.9988 18.8848 12.1804 16.9583 10.5894 15.0319C11.2713 14.6919 11.8395 14.2386 12.2941 13.7853C14.567 11.5189 13.7715 8.5726 11.4986 6.30618C9.22564 4.03977 6.3845 3.13321 3.99794 5.51294C1.61138 7.89267 1.38409 11.9722 3.20242 14.5786C6.49814 19.5647 11.4985 24.5508 16.499 27.8371C19.2264 29.6502 23.3177 29.3103 25.5906 27.0439C27.8635 24.7775 27.068 21.8311 24.7951 19.5647C22.5222 17.2983 19.5674 16.3917 17.2945 18.7715Z" stroke="#56423D" stroke-width="3" stroke-miterlimit="10" stroke-linejoin="round"/>
<path d="M28.9999 13.2187C28.9999 6.98611 23.9995 2 17.749 2" stroke="#56423D" stroke-width="3" stroke-miterlimit="10" stroke-linecap="round" stroke-linejoin="round"/>
<path d="M23.4314 12.9921C23.4314 10.0457 20.9312 7.66602 17.8628 7.66602" stroke="#56423D" stroke-width="3" stroke-miterlimit="10" stroke-linecap="round" stroke-linejoin="round"/>
</svg>
