<svg width="642" height="185" viewBox="0 0 642 185" fill="none" xmlns="http://www.w3.org/2000/svg">
<g filter="url(#filter0_d_59_200)">
<rect x="32" y="10" width="573.3" height="117" rx="30" fill="#FEF9FF"/>
<rect x="34" y="12" width="569.3" height="113" rx="28" stroke="#56423D" stroke-width="4"/>
</g>
<g filter="url(#filter1_d_59_200)">
<rect x="393.53" y="10" width="211.77" height="117" rx="30" fill="#56423D"/>
<rect x="395.53" y="12" width="207.77" height="113" rx="28" stroke="#56423D" stroke-width="4"/>
</g>
<path d="M438.617 76.95V60.15H444.905C446.329 60.15 447.553 60.382 448.577 60.846C449.601 61.294 450.385 61.95 450.929 62.814C451.489 63.662 451.769 64.694 451.769 65.91C451.769 67.094 451.489 68.118 450.929 68.982C450.385 69.83 449.601 70.486 448.577 70.95C447.553 71.414 446.329 71.646 444.905 71.646H439.601L440.393 70.806V76.95H438.617ZM440.393 70.95L439.601 70.086H444.857C446.537 70.086 447.809 69.726 448.673 69.006C449.553 68.27 449.993 67.238 449.993 65.91C449.993 64.566 449.553 63.526 448.673 62.79C447.809 62.054 446.537 61.686 444.857 61.686H439.601L440.393 60.846V70.95ZM461.731 77.07C460.419 77.07 459.267 76.798 458.275 76.254C457.283 75.694 456.507 74.934 455.947 73.974C455.387 72.998 455.107 71.886 455.107 70.638C455.107 69.39 455.371 68.286 455.899 67.326C456.443 66.366 457.179 65.614 458.107 65.07C459.051 64.51 460.107 64.23 461.275 64.23C462.459 64.23 463.507 64.502 464.419 65.046C465.347 65.574 466.075 66.326 466.603 67.302C467.131 68.262 467.395 69.374 467.395 70.638C467.395 70.718 467.387 70.806 467.371 70.902C467.371 70.982 467.371 71.07 467.371 71.166H456.403V69.894H466.459L465.787 70.398C465.787 69.486 465.587 68.678 465.187 67.974C464.803 67.254 464.275 66.694 463.603 66.294C462.931 65.894 462.155 65.694 461.275 65.694C460.411 65.694 459.635 65.894 458.947 66.294C458.259 66.694 457.723 67.254 457.339 67.974C456.955 68.694 456.763 69.518 456.763 70.446V70.71C456.763 71.67 456.971 72.518 457.387 73.254C457.819 73.974 458.411 74.542 459.163 74.958C459.931 75.358 460.803 75.558 461.779 75.558C462.547 75.558 463.259 75.422 463.915 75.15C464.587 74.878 465.163 74.462 465.643 73.902L466.603 75.006C466.043 75.678 465.339 76.19 464.491 76.542C463.659 76.894 462.739 77.07 461.731 77.07ZM475.447 77.07C474.407 77.07 473.423 76.926 472.495 76.638C471.567 76.334 470.839 75.958 470.311 75.51L471.079 74.166C471.591 74.55 472.247 74.886 473.047 75.174C473.847 75.446 474.687 75.582 475.567 75.582C476.767 75.582 477.631 75.398 478.159 75.03C478.687 74.646 478.951 74.142 478.951 73.518C478.951 73.054 478.799 72.694 478.495 72.438C478.207 72.166 477.823 71.966 477.343 71.838C476.863 71.694 476.327 71.574 475.735 71.478C475.143 71.382 474.551 71.27 473.959 71.142C473.383 71.014 472.855 70.83 472.375 70.59C471.895 70.334 471.503 69.99 471.199 69.558C470.911 69.126 470.767 68.55 470.767 67.83C470.767 67.142 470.959 66.526 471.343 65.982C471.727 65.438 472.287 65.014 473.023 64.7099C473.775 64.39 474.687 64.23 475.759 64.23C476.575 64.23 477.391 64.342 478.207 64.566C479.023 64.774 479.695 65.054 480.223 65.406L479.479 66.774C478.919 66.39 478.319 66.118 477.679 65.958C477.039 65.782 476.399 65.694 475.759 65.694C474.623 65.694 473.783 65.894 473.239 66.294C472.711 66.678 472.447 67.174 472.447 67.782C472.447 68.262 472.591 68.638 472.879 68.91C473.183 69.182 473.575 69.398 474.055 69.558C474.551 69.702 475.087 69.822 475.663 69.918C476.255 70.014 476.839 70.134 477.415 70.278C478.007 70.406 478.543 70.59 479.023 70.83C479.519 71.054 479.911 71.382 480.199 71.814C480.503 72.23 480.655 72.782 480.655 73.47C480.655 74.206 480.447 74.846 480.031 75.39C479.631 75.918 479.039 76.334 478.255 76.638C477.487 76.926 476.551 77.07 475.447 77.07ZM489.998 77.07C488.798 77.07 487.718 76.798 486.758 76.254C485.814 75.71 485.07 74.958 484.526 73.998C483.982 73.038 483.71 71.918 483.71 70.638C483.71 69.374 483.982 68.262 484.526 67.302C485.07 66.326 485.814 65.574 486.758 65.046C487.718 64.502 488.798 64.23 489.998 64.23C491.118 64.23 492.11 64.478 492.974 64.974C493.854 65.47 494.55 66.198 495.062 67.158C495.574 68.102 495.83 69.262 495.83 70.638C495.83 72.014 495.566 73.182 495.038 74.142C494.526 75.086 493.83 75.814 492.95 76.326C492.086 76.822 491.102 77.07 489.998 77.07ZM490.118 75.558C491.014 75.558 491.814 75.358 492.518 74.958C493.238 74.542 493.798 73.966 494.198 73.23C494.614 72.478 494.822 71.614 494.822 70.638C494.822 69.662 494.614 68.806 494.198 68.07C493.798 67.334 493.238 66.758 492.518 66.342C491.814 65.926 491.014 65.718 490.118 65.718C489.238 65.718 488.446 65.926 487.742 66.342C487.038 66.758 486.478 67.334 486.062 68.07C485.646 68.806 485.438 69.662 485.438 70.638C485.438 71.614 485.646 72.478 486.062 73.23C486.478 73.966 487.038 74.542 487.742 74.958C488.446 75.358 489.238 75.558 490.118 75.558ZM494.798 81.606V73.206L495.038 70.662L494.87 68.142V64.35H496.502V81.606H494.798ZM507.655 77.07C506.583 77.07 505.647 76.87 504.847 76.47C504.047 76.07 503.423 75.47 502.975 74.67C502.543 73.87 502.327 72.87 502.327 71.67V64.35H504.031V71.478C504.031 72.822 504.359 73.838 505.015 74.526C505.687 75.198 506.623 75.534 507.823 75.534C508.703 75.534 509.463 75.358 510.103 75.006C510.759 74.638 511.255 74.11 511.591 73.422C511.943 72.734 512.119 71.91 512.119 70.95V64.35H513.823V76.95H512.191V73.494L512.455 74.118C512.055 75.046 511.431 75.774 510.583 76.302C509.751 76.814 508.775 77.07 507.655 77.07ZM519.772 76.95V64.35H521.476V76.95H519.772ZM520.636 61.566C520.284 61.566 519.988 61.446 519.748 61.206C519.508 60.966 519.388 60.678 519.388 60.342C519.388 60.0059 519.508 59.7259 519.748 59.5019C519.988 59.262 520.284 59.142 520.636 59.142C520.988 59.142 521.284 59.254 521.524 59.478C521.764 59.702 521.884 59.982 521.884 60.318C521.884 60.67 521.764 60.966 521.524 61.206C521.3 61.446 521.004 61.566 520.636 61.566ZM530.802 77.07C529.762 77.07 528.778 76.926 527.85 76.638C526.922 76.334 526.194 75.958 525.666 75.51L526.434 74.166C526.946 74.55 527.602 74.886 528.402 75.174C529.202 75.446 530.042 75.582 530.922 75.582C532.122 75.582 532.986 75.398 533.514 75.03C534.042 74.646 534.306 74.142 534.306 73.518C534.306 73.054 534.154 72.694 533.85 72.438C533.562 72.166 533.178 71.966 532.698 71.838C532.218 71.694 531.682 71.574 531.09 71.478C530.498 71.382 529.906 71.27 529.314 71.142C528.738 71.014 528.21 70.83 527.73 70.59C527.25 70.334 526.858 69.99 526.554 69.558C526.266 69.126 526.122 68.55 526.122 67.83C526.122 67.142 526.314 66.526 526.698 65.982C527.082 65.438 527.642 65.014 528.378 64.7099C529.13 64.39 530.042 64.23 531.114 64.23C531.93 64.23 532.746 64.342 533.562 64.566C534.378 64.774 535.05 65.054 535.578 65.406L534.834 66.774C534.274 66.39 533.674 66.118 533.034 65.958C532.394 65.782 531.754 65.694 531.114 65.694C529.978 65.694 529.138 65.894 528.594 66.294C528.066 66.678 527.802 67.174 527.802 67.782C527.802 68.262 527.946 68.638 528.234 68.91C528.538 69.182 528.93 69.398 529.41 69.558C529.906 69.702 530.442 69.822 531.018 69.918C531.61 70.014 532.194 70.134 532.77 70.278C533.362 70.406 533.898 70.59 534.378 70.83C534.874 71.054 535.266 71.382 535.554 71.814C535.858 72.23 536.01 72.782 536.01 73.47C536.01 74.206 535.802 74.846 535.386 75.39C534.986 75.918 534.394 76.334 533.61 76.638C532.842 76.926 531.906 77.07 530.802 77.07ZM548.232 76.95V74.166L548.16 73.71V69.054C548.16 67.982 547.856 67.158 547.248 66.582C546.656 66.006 545.768 65.718 544.584 65.718C543.768 65.718 542.992 65.854 542.256 66.126C541.52 66.398 540.896 66.758 540.384 67.206L539.616 65.934C540.256 65.39 541.024 64.974 541.92 64.686C542.816 64.382 543.76 64.23 544.752 64.23C546.384 64.23 547.64 64.638 548.52 65.454C549.416 66.254 549.864 67.478 549.864 69.126V76.95H548.232ZM543.888 77.07C542.944 77.07 542.12 76.918 541.416 76.614C540.728 76.294 540.2 75.862 539.832 75.318C539.464 74.758 539.28 74.118 539.28 73.398C539.28 72.742 539.432 72.15 539.736 71.622C540.056 71.078 540.568 70.646 541.272 70.326C541.992 69.99 542.952 69.822 544.152 69.822H548.496V71.094H544.2C542.984 71.094 542.136 71.31 541.656 71.742C541.192 72.174 540.96 72.71 540.96 73.35C540.96 74.07 541.24 74.646 541.8 75.078C542.36 75.51 543.144 75.726 544.152 75.726C545.112 75.726 545.936 75.51 546.624 75.078C547.328 74.63 547.84 73.99 548.16 73.158L548.544 74.334C548.224 75.166 547.664 75.83 546.864 76.326C546.08 76.822 545.088 77.07 543.888 77.07ZM555.693 76.95V64.35H557.325V67.782L557.157 67.182C557.509 66.222 558.101 65.494 558.933 64.998C559.765 64.486 560.797 64.23 562.029 64.23V65.886C561.965 65.886 561.901 65.886 561.837 65.886C561.773 65.87 561.709 65.862 561.645 65.862C560.317 65.862 559.277 66.27 558.525 67.086C557.773 67.886 557.397 69.03 557.397 70.518V76.95H555.693Z" fill="#FEF9FF"/>
<path d="M81.872 76.95V60.15H83.336L91.016 73.254H90.248L97.856 60.15H99.32V76.95H97.616V62.814H98.024L91.016 74.814H90.176L83.12 62.814H83.576V76.95H81.872ZM113.53 76.95V74.166L113.458 73.71V69.054C113.458 67.982 113.154 67.158 112.546 66.582C111.954 66.006 111.066 65.718 109.882 65.718C109.066 65.718 108.29 65.854 107.554 66.126C106.818 66.398 106.194 66.758 105.682 67.206L104.914 65.934C105.554 65.39 106.322 64.974 107.218 64.686C108.114 64.382 109.058 64.23 110.05 64.23C111.682 64.23 112.938 64.638 113.818 65.454C114.714 66.254 115.162 67.478 115.162 69.126V76.95H113.53ZM109.186 77.07C108.242 77.07 107.418 76.918 106.714 76.614C106.026 76.294 105.498 75.862 105.13 75.318C104.762 74.758 104.578 74.118 104.578 73.398C104.578 72.742 104.73 72.15 105.034 71.622C105.354 71.078 105.866 70.646 106.57 70.326C107.29 69.99 108.25 69.822 109.45 69.822H113.794V71.094H109.498C108.282 71.094 107.434 71.31 106.954 71.742C106.49 72.174 106.258 72.71 106.258 73.35C106.258 74.07 106.538 74.646 107.098 75.078C107.658 75.51 108.442 75.726 109.45 75.726C110.41 75.726 111.234 75.51 111.922 75.078C112.626 74.63 113.138 73.99 113.458 73.158L113.842 74.334C113.522 75.166 112.962 75.83 112.162 76.326C111.378 76.822 110.386 77.07 109.186 77.07ZM126.222 77.07C124.974 77.07 123.854 76.798 122.862 76.254C121.886 75.694 121.118 74.934 120.558 73.974C119.998 72.998 119.718 71.886 119.718 70.638C119.718 69.374 119.998 68.262 120.558 67.302C121.118 66.342 121.886 65.59 122.862 65.046C123.854 64.502 124.974 64.23 126.222 64.23C127.294 64.23 128.262 64.438 129.126 64.854C129.99 65.27 130.67 65.894 131.166 66.726L129.894 67.59C129.462 66.95 128.926 66.478 128.286 66.174C127.646 65.87 126.95 65.718 126.198 65.718C125.302 65.718 124.494 65.926 123.774 66.342C123.054 66.742 122.486 67.31 122.07 68.046C121.654 68.782 121.446 69.646 121.446 70.638C121.446 71.63 121.654 72.494 122.07 73.23C122.486 73.966 123.054 74.542 123.774 74.958C124.494 75.358 125.302 75.558 126.198 75.558C126.95 75.558 127.646 75.406 128.286 75.102C128.926 74.798 129.462 74.334 129.894 73.71L131.166 74.574C130.67 75.39 129.99 76.014 129.126 76.446C128.262 76.862 127.294 77.07 126.222 77.07ZM125.214 82.23C124.814 82.23 124.446 82.182 124.11 82.086C123.79 81.99 123.486 81.854 123.198 81.678L123.606 80.766C123.846 80.91 124.094 81.022 124.35 81.102C124.622 81.182 124.902 81.222 125.19 81.222C125.67 81.222 126.038 81.118 126.294 80.91C126.55 80.718 126.678 80.446 126.678 80.094C126.678 79.774 126.55 79.51 126.294 79.302C126.054 79.094 125.686 78.99 125.19 78.99H124.638L125.214 76.806H126.246L125.886 78.198C126.542 78.246 127.046 78.446 127.398 78.798C127.75 79.166 127.926 79.614 127.926 80.142C127.926 80.782 127.67 81.286 127.158 81.654C126.662 82.038 126.014 82.23 125.214 82.23ZM143.61 76.95V74.166L143.538 73.71V69.054C143.538 67.982 143.234 67.158 142.626 66.582C142.034 66.006 141.146 65.718 139.962 65.718C139.146 65.718 138.37 65.854 137.634 66.126C136.898 66.398 136.274 66.758 135.762 67.206L134.994 65.934C135.634 65.39 136.402 64.974 137.298 64.686C138.194 64.382 139.138 64.23 140.13 64.23C141.762 64.23 143.018 64.638 143.898 65.454C144.794 66.254 145.242 67.478 145.242 69.126V76.95H143.61ZM139.266 77.07C138.322 77.07 137.498 76.918 136.794 76.614C136.106 76.294 135.578 75.862 135.21 75.318C134.842 74.758 134.658 74.118 134.658 73.398C134.658 72.742 134.81 72.15 135.114 71.622C135.434 71.078 135.946 70.646 136.65 70.326C137.37 69.99 138.33 69.822 139.53 69.822H143.874V71.094H139.578C138.362 71.094 137.514 71.31 137.034 71.742C136.57 72.174 136.338 72.71 136.338 73.35C136.338 74.07 136.618 74.646 137.178 75.078C137.738 75.51 138.522 75.726 139.53 75.726C140.49 75.726 141.314 75.51 142.002 75.078C142.706 74.63 143.218 73.99 143.538 73.158L143.922 74.334C143.602 75.166 143.042 75.83 142.242 76.326C141.458 76.822 140.466 77.07 139.266 77.07ZM141.81 62.238C141.442 62.238 141.114 62.158 140.826 61.998C140.538 61.838 140.274 61.654 140.034 61.446C139.81 61.222 139.586 61.03 139.362 60.87C139.138 60.694 138.906 60.6059 138.666 60.6059C138.298 60.6059 138.002 60.742 137.778 61.014C137.57 61.286 137.45 61.662 137.418 62.142H136.386C136.418 61.3419 136.626 60.702 137.01 60.222C137.41 59.742 137.922 59.5019 138.546 59.5019C138.914 59.5019 139.242 59.59 139.53 59.766C139.834 59.926 140.098 60.118 140.322 60.342C140.562 60.55 140.786 60.734 140.994 60.894C141.218 61.054 141.45 61.134 141.69 61.134C142.058 61.134 142.354 61.006 142.578 60.75C142.802 60.478 142.922 60.11 142.938 59.646H143.97C143.954 60.414 143.746 61.038 143.346 61.518C142.946 61.998 142.434 62.238 141.81 62.238Z" fill="black"/>
<defs>
<filter id="filter0_d_59_200" x="0" y="0" width="641.3" height="185" filterUnits="userSpaceOnUse" color-interpolation-filters="sRGB">
<feFlood flood-opacity="0" result="BackgroundImageFix"/>
<feColorMatrix in="SourceAlpha" type="matrix" values="0 0 0 0 0 0 0 0 0 0 0 0 0 0 0 0 0 0 127 0" result="hardAlpha"/>
<feOffset dx="2" dy="24"/>
<feGaussianBlur stdDeviation="17"/>
<feComposite in2="hardAlpha" operator="out"/>
<feColorMatrix type="matrix" values="0 0 0 0 0.3375 0 0 0 0 0.259362 0 0 0 0 0.237656 0 0 0 0.15 0"/>
<feBlend mode="normal" in2="BackgroundImageFix" result="effect1_dropShadow_59_200"/>
<feBlend mode="normal" in="SourceGraphic" in2="effect1_dropShadow_59_200" result="shape"/>
</filter>
<filter id="filter1_d_59_200" x="361.53" y="0" width="279.77" height="185" filterUnits="userSpaceOnUse" color-interpolation-filters="sRGB">
<feFlood flood-opacity="0" result="BackgroundImageFix"/>
<feColorMatrix in="SourceAlpha" type="matrix" values="0 0 0 0 0 0 0 0 0 0 0 0 0 0 0 0 0 0 127 0" result="hardAlpha"/>
<feOffset dx="2" dy="24"/>
<feGaussianBlur stdDeviation="17"/>
<feComposite in2="hardAlpha" operator="out"/>
<feColorMatrix type="matrix" values="0 0 0 0 0.3375 0 0 0 0 0.259362 0 0 0 0 0.237656 0 0 0 0.15 0"/>
<feBlend mode="normal" in2="BackgroundImageFix" result="effect1_dropShadow_59_200"/>
<feBlend mode="normal" in="SourceGraphic" in2="effect1_dropShadow_59_200" result="shape"/>
</filter>
</defs>
</svg>
